<svg width="168" height="36" viewBox="0 0 168 36" fill="none" xmlns="http://www.w3.org/2000/svg" class="black"><path data-v-d87a75ac="" d="M0.25 0H18.25C28.1911 0 36.25 8.0589 36.25 18C36.25 27.9411 28.1911 36 18.25 36H0.25V0Z" class="icon-bg"></path> <path data-v-d87a75ac="" d="M51.85 9.47402V26.25H50.17V9.47402H51.85ZM65.4708 9.47402V10.866H60.8144V26.25H59.1344V10.866H54.4544V9.47402H65.4708ZM73.4516 9.57002C75.2276 9.57002 76.7793 9.91404 78.1076 10.602C79.4516 11.274 80.4836 12.25 81.2036 13.53C81.9393 14.794 82.3076 16.274 82.3076 17.97C82.3076 19.666 81.9393 21.138 81.2036 22.386C80.4836 23.634 79.4516 24.594 78.1076 25.266C76.7793 25.9221 75.2276 26.25 73.4516 26.25H68.0035V9.57002H73.4516ZM73.4516 24.018C75.4031 24.018 76.8993 23.49 77.9396 22.434C78.9791 21.378 79.4996 19.89 79.4996 17.97C79.4996 16.034 78.9791 14.522 77.9396 13.434C76.8993 12.346 75.4031 11.802 73.4516 11.802H70.7396V24.018H73.4516ZM97.1388 19.314C97.1388 19.81 97.1066 20.258 97.0428 20.658H86.9388C87.0191 21.714 87.4106 22.5621 88.1148 23.202C88.8191 23.842 89.6831 24.162 90.7068 24.162C92.1791 24.162 93.2186 23.546 93.8268 22.314H96.7788C96.3791 23.53 95.6508 24.53 94.5948 25.314C93.5546 26.082 92.2586 26.466 90.7068 26.466C89.4431 26.466 88.3068 26.1861 87.2988 25.626C86.3066 25.05 85.5228 24.25 84.9468 23.226C84.3866 22.186 84.1068 20.986 84.1068 19.626C84.1068 18.266 84.3791 17.074 84.9228 16.05C85.4831 15.01 86.2586 14.21 87.2508 13.65C88.2588 13.09 89.4108 12.81 90.7068 12.81C91.9548 12.81 93.0671 13.082 94.0428 13.626C95.0186 14.17 95.7791 14.938 96.3228 15.93C96.8666 16.906 97.1388 18.034 97.1388 19.314ZM94.2828 18.45C94.2671 17.442 93.9071 16.634 93.2028 16.026C92.4986 15.418 91.6271 15.114 90.5868 15.114C89.6426 15.114 88.8348 15.418 88.1628 16.026C87.4908 16.618 87.0911 17.426 86.9628 18.45H94.2828ZM98.9193 19.626C98.9193 18.266 99.1916 17.074 99.7353 16.05C100.296 15.01 101.064 14.21 102.039 13.65C103.015 13.09 104.136 12.81 105.399 12.81C106.999 12.81 108.319 13.194 109.359 13.962C110.415 14.714 111.127 15.794 111.495 17.202H108.543C108.303 16.546 107.919 16.034 107.391 15.666C106.863 15.298 106.2 15.114 105.399 15.114C104.28 15.114 103.383 15.514 102.711 16.314C102.055 17.098 101.727 18.202 101.727 19.626C101.727 21.05 102.055 22.162 102.711 22.962C103.383 23.7621 104.28 24.162 105.399 24.162C106.983 24.162 108.031 23.466 108.543 22.074H111.495C111.111 23.418 110.391 24.49 109.335 25.29C108.279 26.074 106.968 26.466 105.399 26.466C104.136 26.466 103.015 26.1861 102.039 25.626C101.064 25.05 100.296 24.25 99.7353 23.226C99.1916 22.186 98.9193 20.986 98.9193 19.626ZM115.614 11.274C115.118 11.274 114.702 11.106 114.366 10.77C114.03 10.434 113.862 10.018 113.862 9.52202C113.862 9.02604 114.03 8.61002 114.366 8.27402C114.702 7.93802 115.118 7.77002 115.614 7.77002C116.094 7.77002 116.502 7.93802 116.838 8.27402C117.174 8.61002 117.342 9.02604 117.342 9.52202C117.342 10.018 117.174 10.434 116.838 10.77C116.502 11.106 116.094 11.274 115.614 11.274ZM116.958 13.026V26.25H114.222V13.026H116.958ZM125.35 26.466C124.31 26.466 123.374 26.2821 122.542 25.914C121.726 25.53 121.078 25.018 120.598 24.378C120.118 23.722 119.862 22.994 119.83 22.194H122.662C122.71 22.754 122.974 23.226 123.454 23.61C123.95 23.9781 124.566 24.162 125.302 24.162C126.07 24.162 126.662 24.018 127.078 23.73C127.51 23.426 127.726 23.0421 127.726 22.578C127.726 22.0821 127.486 21.714 127.006 21.474C126.542 21.234 125.798 20.97 124.774 20.682C123.782 20.41 122.974 20.146 122.35 19.89C121.726 19.634 121.182 19.242 120.718 18.714C120.27 18.186 120.046 17.49 120.046 16.626C120.046 15.922 120.254 15.282 120.67 14.706C121.086 14.114 121.678 13.65 122.446 13.314C123.23 12.978 124.126 12.81 125.134 12.81C126.638 12.81 127.846 13.194 128.758 13.962C129.686 14.714 130.182 15.746 130.246 17.058H127.51C127.462 16.466 127.222 15.994 126.79 15.642C126.358 15.29 125.774 15.114 125.038 15.114C124.318 15.114 123.766 15.25 123.382 15.522C122.998 15.794 122.806 16.154 122.806 16.602C122.806 16.954 122.934 17.25 123.19 17.49C123.446 17.73 123.758 17.922 124.126 18.066C124.494 18.194 125.038 18.362 125.758 18.57C126.718 18.826 127.502 19.09 128.11 19.362C128.734 19.618 129.27 20.002 129.718 20.514C130.166 21.0261 130.398 21.706 130.414 22.554C130.414 23.306 130.206 23.978 129.79 24.57C129.374 25.162 128.782 25.626 128.014 25.962C127.262 26.298 126.374 26.466 125.35 26.466ZM134.763 11.274C134.266 11.274 133.851 11.106 133.515 10.77C133.179 10.434 133.011 10.018 133.011 9.52202C133.011 9.02604 133.179 8.61002 133.515 8.27402C133.851 7.93802 134.266 7.77002 134.763 7.77002C135.243 7.77002 135.651 7.93802 135.987 8.27402C136.323 8.61002 136.491 9.02604 136.491 9.52202C136.491 10.018 136.323 10.434 135.987 10.77C135.651 11.106 135.243 11.274 134.763 11.274ZM136.107 13.026V26.25H133.371V13.026H136.107ZM145.434 26.466C144.186 26.466 143.058 26.1861 142.05 25.626C141.042 25.05 140.25 24.25 139.674 23.226C139.098 22.186 138.81 20.986 138.81 19.626C138.81 18.282 139.107 17.09 139.698 16.05C140.291 15.01 141.099 14.21 142.122 13.65C143.147 13.09 144.291 12.81 145.554 12.81C146.819 12.81 147.963 13.09 148.986 13.65C150.011 14.21 150.819 15.01 151.41 16.05C152.003 17.09 152.298 18.282 152.298 19.626C152.298 20.97 151.995 22.162 151.386 23.202C150.779 24.2421 149.946 25.05 148.89 25.626C147.851 26.1861 146.699 26.466 145.434 26.466ZM145.434 24.09C146.139 24.09 146.795 23.922 147.402 23.586C148.026 23.25 148.53 22.746 148.914 22.074C149.298 21.402 149.49 20.586 149.49 19.626C149.49 18.666 149.307 17.858 148.938 17.202C148.571 16.53 148.083 16.026 147.474 15.69C146.867 15.354 146.211 15.186 145.506 15.186C144.803 15.186 144.147 15.354 143.538 15.69C142.947 16.026 142.475 16.53 142.122 17.202C141.771 17.858 141.594 18.666 141.594 19.626C141.594 21.05 141.954 22.154 142.674 22.938C143.411 23.706 144.33 24.09 145.434 24.09ZM161.676 12.81C162.715 12.81 163.644 13.026 164.46 13.458C165.291 13.89 165.939 14.53 166.404 15.378C166.867 16.226 167.1 17.25 167.1 18.45V26.25H164.388V18.858C164.388 17.674 164.091 16.77 163.5 16.146C162.907 15.506 162.099 15.186 161.076 15.186C160.051 15.186 159.235 15.506 158.628 16.146C158.035 16.77 157.74 17.674 157.74 18.858V26.25H155.004V13.026H157.74V14.538C158.187 13.994 158.755 13.57 159.444 13.266C160.147 12.962 160.891 12.81 161.676 12.81Z" class="logo-text"></path> <path data-v-d87a75ac="" d="M19.75 9H14.5V27H19.75V9Z" class="icon-el"></path> <path data-v-d87a75ac="" d="M25.75 9H19.75L25.75 15V9Z" class="icon-el"></path> <path data-v-d87a75ac="" d="M10.75 15C12.4069 15 13.75 13.6569 13.75 12C13.75 10.3431 12.4069 9 10.75 9C9.09315 9 7.75 10.3431 7.75 12C7.75 13.6569 9.09315 15 10.75 15Z" class="icon-el"></path></svg>